<svg xmlns="http://www.w3.org/2000/svg" viewBox="0 0 220 190" width="220" height="190" role="img" aria-label="Huevia by Divyansha">
  <defs>
    <linearGradient id="leafGradS" x1="30" y1="25" x2="90" y2="115" gradientUnits="userSpaceOnUse">
      <stop offset="0" stop-color="#8CA37F"/>
      <stop offset="1" stop-color="#6B7A52"/>
    </linearGradient>
  </defs>
  <g transform="translate(50,0) scale(1)">
    <g transform="rotate(-18 60 65)">
      <path d="M60,25 C85,40 85,90 60,105 C35,90 35,40 60,25 Z" fill="url(#leafGradS)"/>
      <path d="M60,33 C64,50 64,80 60,99" fill="none" stroke="#F4F0EA" stroke-width="1.4" stroke-linecap="round" opacity="0.75"/>
      <path d="M60,105 C58,110 58,115 60,119" fill="none" stroke="#6B7A52" stroke-width="3" stroke-linecap="round"/>
      <path d="M60,9 C65,14 65,21 60,25 C55,21 55,14 60,9 Z" fill="#C4A49A"/>
    </g>
  </g>
  <text x="110" y="152" text-anchor="middle" font-family="'Cormorant Garamond', Georgia, serif" font-style="italic" font-weight="500" font-size="42" fill="#2E2924">Huevia</text>
  <text x="110" y="174" text-anchor="middle" font-family="'DM Sans', sans-serif" font-size="11" letter-spacing="3.5" fill="#8A837B">BY DIVYANSHA</text>
</svg>
